<svg class="icon" viewBox="0 0 6764 1024" xmlns="http://www.w3.org/2000/svg" width="1321.094" height="200"><defs><style/></defs><path d="M5296.687 684.528h106.868c56.289 0 101.717-17.594 136.316-52.844 34.568-35.22 51.883-80.679 51.883-136.316 0-55.11-17.315-100.383-51.883-135.913-34.599-35.468-80.058-53.217-136.316-53.217h-106.868v378.29zm-95.263 89.026V217.212h202.13c84.683 0 153.85 26.376 207.563 79.065 53.682 52.752 80.554 119.095 80.554 199.09 0 79.5-26.996 145.72-80.958 198.719-53.93 52.969-123.004 79.437-207.158 79.437h-202.1zm593.113 0V217.212h401.935v87.412H5889.8v144.664h271.825V536.7H5889.8v149.442h310.551v87.412h-405.814zm853.116-556.342h109.227l-188.975 271.826 196.701 284.516h-112.299l-142.49-210.602-143.268 210.602h-109.195L6454.83 490.62l-189.72-273.408h112.299l134.734 199.494 135.478-199.494zm-1765.5 555.505l-412.517.372V217.212h408.669v108.916h-290.257v112.734h255.41v108.916h-255.41v115.991h294.105v108.917zm-508.432-80.369v.62c-55.792 61.224-117.667 99.36-222.177 98.956-159.402 0-277.814-126.386-277.814-285.913v-1.582c0-157.665 116.084-287.217 282.469-287.217 102.183 0 163.281 34.971 213.55 85.861l-75.745 89.15c-42.077-38.943-84.433-62.805-138.581-62.805-91.291 0-157.106 77.855-157.106 173.21v1.583c0 95.48 64.263 174.701 157.106 174.701 61.937 0 99.887-25.538 142.43-65.164l75.868 78.631zm-615.3 80.151l-101.158.621-262.672-353.373v353.342h-117.512V217.212h110.003l253.703 342.264V217.212h117.636V772.5zm-568.102 3.972l-124.587.62-49.493-124.74h-229.097l-49.494 124.74h-121.514l232.106-559.879h109.879l232.2 559.26zm-216.654-232.634l-71.99-180.348-71.99 180.348h143.98zM2530.149 772.53l-101.407.559-262.3-353.342v353.342h-117.635V217.212h109.91l253.703 342.264V217.212h117.729V772.5zm-640.652 0l-119.187.559V217.212h119.156V772.5zM1639.641 620.7c0 101.996-80.492 152.792-202.845 152.389h-257.644V217.212h251.47c110.684 0 178.827 56.351 178.827 143.701v1.583c0 62.805-32.613 97.745-71.215 119.932 62.806 24.67 101.407 61.999 101.407 136.658v1.613zm-118.411-15.36v-.994c0-37.33-27.12-60.323-88.282-60.323h-137.743v121.732h141.56c52.69 0 84.434-19.115 84.434-60.416zm-30.193-222.333v-.993c0-36.554-27.896-57.25-78.196-57.25h-117.605v116.983h109.91c52.596 0 85.891-17.439 85.891-58.74zm-1393.043 128l.31 197.756 168.184 98.832v115.401L0 766.883V453.322l97.994 57.716zm0-197.85V428.56L0 370.812v-115.37l97.994-57.593 98.024 57.592-98.024 57.717zm238.281-57.716l98.087-57.592 97.932 57.592-98.025 57.717-97.994-57.717zM168.464 667.524v-115.37l98.024 57.685V725.24l-98.024-57.716zm167.811 181.31l97.994 57.716 98.025-57.716v115.37l-98.025 57.717-97.994-57.716V848.834zM672.737 255.44l97.994-57.592 98.024 57.592v115.433l-98.024 57.686V313.127l-97.994-57.655zm97.994 453.353l.124-197.787 97.993-57.716v313.592L602.546 922.996V807.595l168.185-98.832zm-70.067-41.27l-97.993 57.716V609.808l97.993-57.655v115.402zm0-313.127l.186 115.402-168.184 98.8v198.284l-97.994 57.685-98.024-57.716V568.599l-168.153-98.8V354.366l98.024-57.685 167.874 98.924 168.309-98.924 97.993 57.716zM168.494 156.64L434.332 0l266.302 156.641-97.993 57.685-168.309-98.924-167.874 98.924-98.025-57.716z" fill="#F0B90B"/></svg>